<svg width="322.559" height="106.982" viewBox="0 0 322.559 106.982" xmlns="http://www.w3.org/2000/svg"><g id="svgGroup" stroke-linecap="round" fill-rule="evenodd" font-size="9pt" stroke="#ffffff" stroke-width="0.25mm" fill="#ffffff" style="stroke:#ffffff;stroke-width:0.25mm;fill:#ffffff"><path d="M 322.559 24.854 L 294.385 104.785 A 2.598 2.598 0 0 1 294.141 105.337 Q 293.942 105.667 293.661 105.846 A 1.389 1.389 0 0 1 292.969 106.055 L 283.154 106.396 Q 282.206 106.353 282.095 105.626 A 1.361 1.361 0 0 1 282.08 105.42 L 290.479 81.738 L 282.861 25.098 A 1.486 1.486 0 0 1 282.932 24.62 Q 283.091 24.15 283.61 23.997 A 1.949 1.949 0 0 1 284.082 23.926 L 293.701 23.584 Q 294.824 23.633 294.922 24.854 L 298.633 65.918 L 310.498 25.098 Q 310.694 24.346 311.196 24.076 A 1.329 1.329 0 0 1 311.768 23.926 L 321.338 23.584 A 1.873 1.873 0 0 1 321.839 23.687 Q 322.559 23.954 322.559 24.854 Z M 76.025 84.375 L 77.295 73.877 A 33.777 33.777 0 0 1 75.419 76.951 Q 73.819 79.266 72.095 80.762 Q 69.336 83.154 65.845 83.154 A 17.673 17.673 0 0 1 63.388 82.993 Q 62.072 82.808 60.969 82.411 A 9.457 9.457 0 0 1 60.01 82.007 A 11.456 11.456 0 0 1 57.302 80.185 A 10.25 10.25 0 0 1 56.177 78.979 Q 54.688 77.1 53.76 74.463 Q 52.068 69.823 52.051 61.812 A 76.884 76.884 0 0 1 52.051 61.646 Q 52.051 55.421 52.695 50.642 A 49.12 49.12 0 0 1 53.149 47.852 A 219.78 219.78 0 0 1 53.682 45.189 Q 54.456 41.449 55.078 39.233 A 42.484 42.484 0 0 1 56.485 35.091 A 50.08 50.08 0 0 1 57.3 33.154 A 26.769 26.769 0 0 1 58.588 30.616 Q 59.351 29.299 60.204 28.23 A 16.316 16.316 0 0 1 60.449 27.93 A 13.487 13.487 0 0 1 64.664 24.495 A 12.787 12.787 0 0 1 70.557 23.145 A 15.037 15.037 0 0 1 73.219 23.365 Q 74.679 23.628 75.833 24.205 A 7.245 7.245 0 0 1 77.441 25.293 A 12.199 12.199 0 0 1 79.33 27.479 Q 80.534 29.234 81.494 31.689 L 81.982 25.146 Q 82.08 23.975 83.252 23.926 L 93.115 23.584 A 1.832 1.832 0 0 1 93.527 23.688 Q 94.078 23.905 94.134 24.474 A 1.367 1.367 0 0 1 94.141 24.609 L 87.5 83.838 A 45.324 45.324 0 0 1 86.214 90.884 Q 85.227 94.503 83.657 97.29 A 18.485 18.485 0 0 1 79.346 102.539 Q 74.46 106.618 66.488 106.953 A 34.564 34.564 0 0 1 65.039 106.982 Q 59.326 106.982 53.467 105.664 Q 52.822 105.55 52.501 105.363 A 0.917 0.917 0 0 1 52.344 105.249 A 0.728 0.728 0 0 1 52.171 104.996 Q 52.072 104.766 52.055 104.407 A 3.286 3.286 0 0 1 52.051 104.248 L 53.027 95.41 A 2.865 2.865 0 0 1 53.119 94.929 Q 53.362 94.092 54.102 94.092 A 2.113 2.113 0 0 1 54.454 94.132 Q 55.317 94.288 57.589 95.043 A 93.592 93.592 0 0 1 57.666 95.068 A 18.833 18.833 0 0 0 61.543 95.902 A 24.052 24.052 0 0 0 64.209 96.045 A 32.038 32.038 0 0 0 66.306 95.981 Q 68.265 95.852 69.598 95.463 A 8.588 8.588 0 0 0 69.849 95.386 A 6.961 6.961 0 0 0 71.971 94.285 A 6.343 6.343 0 0 0 73.096 93.164 A 9.435 9.435 0 0 0 74.358 91.055 Q 75.335 88.878 75.86 85.541 A 39.508 39.508 0 0 0 76.025 84.375 Z M 169.189 24.854 L 168.652 29.346 A 32.953 32.953 0 0 1 172.936 26.109 Q 177.673 23.145 182.129 23.145 Q 190.332 23.145 192.48 32.129 A 21.81 21.81 0 0 1 192.954 34.791 A 17.554 17.554 0 0 1 193.066 36.743 A 53.249 53.249 0 0 1 193.052 38.018 Q 193.021 39.328 192.92 40.234 L 188.232 81.152 Q 188.037 82.373 187.012 82.471 L 177.148 82.813 Q 176.074 82.715 176.074 81.885 L 180.518 43.213 A 23.899 23.899 0 0 0 180.625 42.04 Q 180.662 41.484 180.664 40.984 A 14.534 14.534 0 0 0 180.664 40.918 A 13.354 13.354 0 0 0 180.547 39.076 Q 180.194 36.554 178.784 35.474 A 6.819 6.819 0 0 0 175.965 34.219 A 9.645 9.645 0 0 0 174.023 34.033 A 15.127 15.127 0 0 0 170.327 34.51 A 19.267 19.267 0 0 0 168.018 35.254 L 162.793 81.152 Q 162.598 82.373 161.572 82.471 L 151.709 82.813 Q 150.635 82.715 150.635 81.885 L 157.08 25.098 Q 157.275 24.023 158.301 23.926 L 167.871 23.584 A 2.083 2.083 0 0 1 168.385 23.661 Q 169.051 23.859 169.166 24.547 A 1.869 1.869 0 0 1 169.189 24.854 Z M 227.148 81.885 L 227.979 75.977 A 20.691 20.691 0 0 1 225.342 79.436 Q 221.77 83.154 217.236 83.154 Q 210.481 83.154 207.129 77.595 A 17.559 17.559 0 0 1 205.664 74.463 Q 203.973 69.823 203.955 61.812 A 76.884 76.884 0 0 1 203.955 61.646 Q 203.955 55.421 204.599 50.642 A 49.12 49.12 0 0 1 205.054 47.852 A 219.78 219.78 0 0 1 205.586 45.189 Q 206.36 41.449 206.982 39.233 A 42.484 42.484 0 0 1 208.389 35.091 A 50.08 50.08 0 0 1 209.204 33.154 A 26.769 26.769 0 0 1 210.492 30.616 Q 211.256 29.299 212.108 28.23 A 16.316 16.316 0 0 1 212.354 27.93 A 13.487 13.487 0 0 1 216.569 24.495 A 12.787 12.787 0 0 1 222.461 23.145 A 15.037 15.037 0 0 1 225.123 23.365 Q 226.584 23.628 227.737 24.205 A 7.245 7.245 0 0 1 229.346 25.293 A 12.199 12.199 0 0 1 231.234 27.479 Q 232.439 29.234 233.398 31.689 L 236.182 1.66 A 2.082 2.082 0 0 1 236.312 1.119 Q 236.611 0.379 237.5 0.342 L 247.07 0 A 1.908 1.908 0 0 1 247.583 0.128 Q 248.291 0.426 248.291 1.318 L 239.258 81.152 Q 239.122 82.333 238.141 82.458 A 1.84 1.84 0 0 1 237.988 82.471 L 228.174 82.813 A 1.894 1.894 0 0 1 227.775 82.735 Q 227.148 82.534 227.148 81.885 Z M 34.619 7.666 L 40.332 81.201 Q 40.332 82.298 39.121 82.417 A 2.802 2.802 0 0 1 39.063 82.422 L 28.857 82.813 Q 27.984 82.813 27.855 82.139 A 1.349 1.349 0 0 1 27.832 81.885 L 27.1 65.771 L 16.016 66.211 L 12.354 81.25 A 4.153 4.153 0 0 1 12.274 81.564 Q 12.146 81.995 11.963 82.178 Q 11.744 82.396 11.212 82.458 A 3.287 3.287 0 0 1 11.084 82.471 L 0.977 82.813 A 1.485 1.485 0 0 1 0.596 82.768 Q 0.111 82.639 0.021 82.135 A 1.421 1.421 0 0 1 0 81.885 L 21.436 8.008 Q 21.77 6.958 22.71 6.888 A 1.775 1.775 0 0 1 22.754 6.885 L 33.496 6.494 A 1.376 1.376 0 0 1 33.975 6.596 Q 34.547 6.841 34.619 7.666 Z M 138.77 57.52 L 114.648 58.35 Q 114.602 59.049 114.6 60.192 A 59.246 59.246 0 0 0 114.6 60.303 Q 114.6 64.083 115.505 66.785 A 11.479 11.479 0 0 0 116.528 69.043 Q 118.457 72.266 122.363 72.266 A 23.417 23.417 0 0 0 127.248 71.771 A 20.32 20.32 0 0 0 129.614 71.118 A 102.548 102.548 0 0 1 130.772 70.728 Q 133.069 69.971 133.545 69.971 Q 134.131 69.971 134.57 70.361 A 1.283 1.283 0 0 1 134.988 71.148 A 1.856 1.856 0 0 1 135.01 71.436 L 134.033 80.029 Q 133.984 80.762 133.765 80.981 Q 133.545 81.201 132.91 81.445 A 43.77 43.77 0 0 1 125.697 82.914 A 36.816 36.816 0 0 1 121.533 83.154 A 36.632 36.632 0 0 1 118.372 83.027 Q 115.247 82.756 113.196 81.903 A 10.191 10.191 0 0 1 113.037 81.836 A 15.844 15.844 0 0 1 110.462 80.434 A 12.029 12.029 0 0 1 108.179 78.442 A 15.845 15.845 0 0 1 105.942 75.114 A 19.31 19.31 0 0 1 105.2 73.462 A 26.423 26.423 0 0 1 103.854 68.952 A 23.652 23.652 0 0 1 103.638 67.7 A 31.855 31.855 0 0 1 103.419 65.707 Q 103.223 63.287 103.223 59.863 A 59.406 59.406 0 0 1 103.371 55.844 Q 103.512 53.775 103.787 51.412 A 131.635 131.635 0 0 1 104.297 47.559 A 49.223 49.223 0 0 1 106.576 38.046 Q 111.82 23.454 125.866 23.151 A 27.803 27.803 0 0 1 126.465 23.145 A 16.62 16.62 0 0 1 131.095 23.754 A 12.076 12.076 0 0 1 137.451 28.076 Q 141.137 32.848 141.256 40.364 A 31.875 31.875 0 0 1 141.26 40.869 A 117.069 117.069 0 0 1 140.283 56.152 Q 140.162 57.241 139.209 57.464 A 2.289 2.289 0 0 1 138.77 57.52 Z M 274.902 1.318 L 265.918 81.104 A 3.788 3.788 0 0 1 265.852 81.455 Q 265.769 81.799 265.633 82.003 A 0.888 0.888 0 0 1 265.576 82.08 A 0.727 0.727 0 0 1 265.344 82.259 Q 265.127 82.37 264.783 82.409 A 3.11 3.11 0 0 1 264.648 82.422 L 254.834 82.813 Q 253.76 82.715 253.76 81.885 L 262.793 1.66 A 3.788 3.788 0 0 1 262.859 1.309 Q 262.942 0.964 263.078 0.76 A 0.888 0.888 0 0 1 263.135 0.684 A 0.727 0.727 0 0 1 263.367 0.505 Q 263.584 0.394 263.928 0.354 A 3.11 3.11 0 0 1 264.063 0.342 L 273.633 0 A 2.06 2.06 0 0 1 274.157 0.125 Q 274.902 0.421 274.902 1.318 Z M 64.355 60.254 A 32.586 32.586 0 0 0 64.573 64.201 Q 65.521 71.924 70.605 71.924 A 4.973 4.973 0 0 0 74.475 70.15 A 7.289 7.289 0 0 0 75.049 69.409 Q 76.699 66.981 77.917 59.839 A 89.053 89.053 0 0 0 78.003 59.326 Q 79.248 51.758 79.248 48.291 Q 79.248 44.929 79.202 43.955 A 10.706 10.706 0 0 0 79.199 43.896 A 33.435 33.435 0 0 0 79.169 43.394 Q 79.131 42.837 79.067 42.118 A 105.025 105.025 0 0 0 79.004 41.431 A 13.896 13.896 0 0 0 78.86 40.346 Q 78.711 39.499 78.467 38.843 A 12.651 12.651 0 0 0 77.814 37.388 A 14.917 14.917 0 0 0 77.441 36.719 Q 76.172 34.619 73.34 34.619 A 4.99 4.99 0 0 0 69.453 36.344 A 6.824 6.824 0 0 0 68.848 37.134 A 14.568 14.568 0 0 0 67.62 39.455 Q 67.114 40.642 66.709 42.061 A 30.518 30.518 0 0 0 66.26 43.848 A 94.01 94.01 0 0 0 64.862 52.185 Q 64.359 56.394 64.356 60.194 A 58.118 58.118 0 0 0 64.355 60.254 Z M 216.26 60.254 A 32.586 32.586 0 0 0 216.477 64.201 Q 217.426 71.924 222.51 71.924 A 4.973 4.973 0 0 0 226.379 70.15 A 7.289 7.289 0 0 0 226.953 69.409 Q 228.604 66.981 229.821 59.839 A 89.053 89.053 0 0 0 229.907 59.326 Q 231.152 51.758 231.152 48.291 Q 231.152 44.929 231.106 43.955 A 10.706 10.706 0 0 0 231.104 43.896 A 33.435 33.435 0 0 0 231.073 43.394 Q 231.035 42.837 230.972 42.118 A 105.025 105.025 0 0 0 230.908 41.431 A 13.896 13.896 0 0 0 230.764 40.346 Q 230.615 39.499 230.371 38.843 A 12.651 12.651 0 0 0 229.719 37.388 A 14.917 14.917 0 0 0 229.346 36.719 Q 228.076 34.619 225.244 34.619 A 4.99 4.99 0 0 0 221.357 36.344 A 6.824 6.824 0 0 0 220.752 37.134 A 14.568 14.568 0 0 0 219.524 39.455 Q 219.018 40.642 218.614 42.061 A 30.518 30.518 0 0 0 218.164 43.848 A 94.01 94.01 0 0 0 216.766 52.185 Q 216.264 56.394 216.26 60.194 A 58.118 58.118 0 0 0 216.26 60.254 Z M 26.66 55.518 L 25.391 27.783 L 18.555 55.811 L 26.66 55.518 Z M 115.82 46.094 L 115.381 49.219 L 128.125 48.584 A 4.766 4.766 0 0 0 128.46 48.553 Q 128.985 48.485 129.182 48.307 A 0.45 0.45 0 0 0 129.199 48.291 Q 129.837 47.654 129.919 45.074 A 25.391 25.391 0 0 0 129.932 44.263 A 78.378 78.378 0 0 0 129.918 42.737 Q 129.877 40.631 129.712 39.624 A 13.662 13.662 0 0 0 129.232 37.656 A 16.118 16.118 0 0 0 128.955 36.865 A 6.571 6.571 0 0 0 128.271 35.462 Q 127.693 34.587 126.89 34.157 A 3.684 3.684 0 0 0 125.122 33.74 A 12.824 12.824 0 0 0 123.467 33.84 Q 121.899 34.045 120.85 34.668 A 6.454 6.454 0 0 0 118.959 36.572 Q 116.919 39.571 115.82 46.094 Z" vector-effect="non-scaling-stroke"/></g></svg>